HIERARCHY
ROOT Hips
{
  OFFSET 54.0795 94.1949 17.5696
  CHANNELS 6 Xposition Yposition Zposition Zrotation Xrotation Yrotation
  JOINT spine
  {
    OFFSET 0 7.80059 0.448573
    CHANNELS 3 Zrotation Xrotation Yrotation
    JOINT spine1
    {
      OFFSET 0 10.1364 0
      CHANNELS 3 Zrotation Xrotation Yrotation
      JOINT spine2
      {
        OFFSET 0 9.71251 0
        CHANNELS 3 Zrotation Xrotation Yrotation
        JOINT Neck
        {
          OFFSET 0 24.9361 1.18887
          CHANNELS 3 Zrotation Xrotation Yrotation
          JOINT Head
          {
            OFFSET 0 7.53384 0
            CHANNELS 3 Zrotation Xrotation Yrotation
            End Site
            {
              OFFSET 0 18.2361 -6.01402
            }
          }
        }
        JOINT RightShoulder
        {
          OFFSET -4.08965 10.4888 -0.569457
          CHANNELS 3 Zrotation Xrotation Yrotation
          JOINT RightArm
          {
            OFFSET 0 13.757 0
            CHANNELS 3 Zrotation Xrotation Yrotation
            JOINT RightArmRoll
            {
              OFFSET 0 6.94478 0
              CHANNELS 3 Zrotation Xrotation Yrotation
              JOINT RightForeArm
              {
                OFFSET 0 20.2277 0
                CHANNELS 3 Zrotation Xrotation Yrotation
                JOINT RightForeArmRoll
                {
                  OFFSET 0 7.79312 0
                  CHANNELS 3 Zrotation Xrotation Yrotation
                  JOINT RightHand
                  {
                    OFFSET 0 15.6391 0
                    CHANNELS 3 Zrotation Xrotation Yrotation
                    End Site
                    {
                      OFFSET 0 0 0
                    }
                  }
                }
              }
            }
          }
        }
        JOINT LeftShoulder
        {
          OFFSET 4.08965 10.4888 -0.569457
          CHANNELS 3 Zrotation Xrotation Yrotation
          JOINT LeftArm
          {
            OFFSET 0 13.757 0
            CHANNELS 3 Zrotation Xrotation Yrotation
            JOINT LeftArmRoll
            {
              OFFSET 0 6.94478 0
              CHANNELS 3 Zrotation Xrotation Yrotation
              JOINT LeftForeArm
              {
                OFFSET 0 20.2277 0
                CHANNELS 3 Zrotation Xrotation Yrotation
                JOINT LeftForeArmRoll
                {
                  OFFSET 0 7.79312 0
                  CHANNELS 3 Zrotation Xrotation Yrotation
                  JOINT LeftHand
                  {
                    OFFSET 0 15.6391 0
                    CHANNELS 3 Zrotation Xrotation Yrotation
                    End Site
                    {
                      OFFSET 0 0 0
                    }
                  }
                }
              }
            }
          }
        }
      }
    }
  }
  JOINT RightUpLeg
  {
    OFFSET -6.91416 -1.26788 -1.06358
    CHANNELS 3 Zrotation Xrotation Yrotation
    JOINT RightUpLegRoll
    {
      OFFSET 0 18.3378 0
      CHANNELS 3 Zrotation Xrotation Yrotation
      JOINT RightLeg
      {
        OFFSET 0 -22.7085 0
        CHANNELS 3 Zrotation Xrotation Yrotation
        JOINT RightLegRoll
        {
          OFFSET 0 22.7828 0
          CHANNELS 3 Zrotation Xrotation Yrotation
          JOINT RightFoot
          {
            OFFSET 0 18.9629 0
            CHANNELS 3 Zrotation Xrotation Yrotation
            JOINT RightToeBase
            {
              OFFSET 0 15.852 0
              CHANNELS 3 Zrotation Xrotation Yrotation
              End Site
              {
                OFFSET 0.00671906 7.677 -0.884893
              }
            }
          }
        }
      }
    }
  }
  JOINT LeftUpLeg
  {
    OFFSET 6.91416 -1.26788 -1.06358
    CHANNELS 3 Zrotation Xrotation Yrotation
    JOINT LeftUpLegRoll
    {
      OFFSET 0 18.3379 0
      CHANNELS 3 Zrotation Xrotation Yrotation
      JOINT LeftLeg
      {
        OFFSET 0 22.7084 0
        CHANNELS 3 Zrotation Xrotation Yrotation
        JOINT LeftLegRoll
        {
          OFFSET 0 22.9934 0
          CHANNELS 3 Zrotation Xrotation Yrotation
          JOINT LeftFoot
          {
            OFFSET 0 18.7522 0
            CHANNELS 3 Zrotation Xrotation Yrotation
            JOINT LeftToeBase
            {
              OFFSET 0 15.852 0
              CHANNELS 3 Zrotation Xrotation Yrotation
              End Site
              {
                OFFSET -0.030112 7.677 -0.884893
              }
            }
          }
        }
      }
    }
  }
}
MOTION
Frames: 11
Frame Time: 0.00208333
54.3427 94.0698 17.4591 -0.324503 -6.29219 -2.59317 -0.335003 -1.22169 0.302182 -0.66647 1.55752 0.643161 -0.674716 3.20248 0.654713 2.12215 17.8078 -1.3231 10.0209 -15.1074 1.6616 72.3671 -3.76911 -3.3445 121.175 32.2866 -74.9447 2.57984e-006 1.60201e-006 4.54815e-006 -133.668 82.4575 122.67 -1.31161e-007 -3.43437e-006 -3 8.02888 -4.95158 0.697773 -65.3497 1.32831 0.0888164 -111.577 20.1309 26.2846 3.18055e-015 6.36111e-015 6.36111e-015 172.796 74.7869 -160.632 1.41329e-005 4.89774e-007 3 -8.0289 -4.9509 -0.697475 175.71 -0.255877 -0.309266 180 7.01568e-015 179.02 -178.401 12.9513 178.781 1.8555e-007 -5.90901e-006 0.124891 -16.5935 70.254 21.345 8.13652 25.233 -3.48722 -177.966 -2.70097 5.62609 4.54188e-006 -4.6773e-006 -1.35088 -4.3706 -11.2387 -0.159169 5.44318e-007 -6.69345e-007 -0.206412 22.6572 71.1258 -22.6679 -8.13649 25.2327 3.48773 
54.3374 94.0719 17.4629 -0.327856 -6.31265 -2.57857 -0.335894 -1.2144 0.301472 -0.6683 1.57208 0.642443 -0.676542 3.21705 0.654028 2.12908 17.683 -1.33446 10.0228 -14.9299 1.63511 72.4715 -3.75329 -3.34451 121.249 32.2402 -74.6213 2.57984e-006 1.60201e-006 4.54815e-006 -133.84 82.5773 122.952 -1.31161e-007 -3.43437e-006 -3 8.02888 -4.95158 0.697773 -65.3603 1.37362 0.065898 -111.58 20.0476 26.2432 -1.59028e-015 3.18055e-015 -6.36111e-015 172.762 74.7237 -160.58 1.41329e-005 4.89774e-007 3 -8.0289 -4.9509 -0.697475 175.716 -0.282098 -0.308371 180 7.01568e-015 179.019 -178.403 12.9513 178.781 1.8555e-007 -5.90901e-006 0.125541 -16.5992 70.2593 21.3488 8.13652 25.233 -3.48722 -177.959 -2.71625 5.62086 4.54188e-006 -4.6773e-006 -1.3512 -4.37081 -11.2473 -0.15958 5.44318e-007 -6.69345e-007 -0.206461 22.6541 71.1268 -22.6676 -8.13649 25.2327 3.48773 
54.3429 94.0728 17.4731 -0.331444 -6.33355 -2.56341 -0.336692 -1.20666 0.300741 -0.669951 1.58755 0.641642 -0.678188 3.23252 0.653258 2.13536 17.5539 -1.34592 10.0253 -14.7525 1.6084 72.5766 -3.73788 -3.34475 121.307 32.1843 -74.2877 2.57984e-006 1.60201e-006 4.54815e-006 -134.077 82.6679 123.275 -1.31161e-007 -3.43437e-006 -3 8.02888 -4.95158 0.697773 -65.3692 1.41689 0.0438719 -111.579 19.9577 26.1979 -1.43125e-014 -6.36111e-015 3.18055e-015 172.727 74.6564 -160.523 1.41329e-005 4.89774e-007 3 -8.0289 -4.9509 -0.697475 175.722 -0.30909 -0.307582 180 7.01568e-015 179.019 -178.404 12.9508 178.781 1.8555e-007 -5.90901e-006 0.126194 -16.6051 70.2646 21.3525 8.13652 25.233 -3.48722 -177.953 -2.73165 5.61552 4.54188e-006 -4.6773e-006 -1.35152 -4.3709 -11.2563 -0.15997 5.44318e-007 -6.69345e-007 -0.206509 22.651 71.1278 -22.6674 -8.13649 25.2327 3.48773 
54.3372 94.0735 17.4686 -0.335246 -6.35472 -2.54772 -0.337386 -1.19853 0.299995 -0.671395 1.60382 0.640761 -0.679627 3.24879 0.652403 2.14106 17.4217 -1.35743 10.0282 -14.5774 1.58173 72.6804 -3.72321 -3.34524 121.35 32.119 -73.9501 2.57984e-006 1.60201e-006 4.54815e-006 -134.368 82.729 123.628 -1.31161e-007 -3.43437e-006 -3 8.02888 -4.95158 0.697773 -65.376 1.45713 0.0232046 -111.576 19.8638 26.1506 -7.95139e-015 -3.18055e-015 3.18055e-015 172.691 74.5866 -160.466 1.41329e-005 4.89774e-007 3 -8.0289 -4.9509 -0.697475 175.729 -0.336691 -0.306895 180 7.01568e-015 179.019 -178.406 12.9499 178.782 1.8555e-007 -5.90901e-006 0.126838 -16.611 70.2697 21.3562 8.13652 25.233 -3.48722 -177.945 -2.74705 5.61013 4.54188e-006 -4.6773e-006 -1.35182 -4.37082 -11.2657 -0.160324 5.44318e-007 -6.69345e-007 -0.206557 22.6477 71.1288 -22.6671 -8.13649 25.2327 3.48773 
54.3331 94.0724 17.4643 -0.339241 -6.37603 -2.53156 -0.337963 -1.19003 0.299239 -0.672609 1.62081 0.639799 -0.680834 3.26578 0.651464 2.14623 17.2877 -1.36895 10.0313 -14.4071 1.55532 72.7809 -3.70962 -3.346 121.375 32.0445 -73.6149 2.57984e-006 1.60201e-006 4.54815e-006 -134.701 82.7601 123.999 -1.31161e-007 -3.43437e-006 -3 8.02888 -4.95158 0.697773 -65.3803 1.49338 0.00436282 -111.573 19.7687 26.103 -1.74931e-014 6.36111e-015 -3.18055e-015 172.655 74.5159 -160.408 1.41329e-005 4.89774e-007 3 -8.0289 -4.9509 -0.697475 175.736 -0.364736 -0.306311 180 7.01568e-015 179.018 -178.408 12.9486 178.782 1.8555e-007 -5.90901e-006 0.127458 -16.617 70.2748 21.3598 8.13652 25.233 -3.48722 -177.938 -2.76232 5.60477 4.54188e-006 -4.6773e-006 -1.35211 -4.37053 -11.2754 -0.160627 5.44318e-007 -6.69345e-007 -0.206605 22.6443 71.1297 -22.6669 -8.13649 25.2327 3.48773 
54.3328 94.0702 17.4703 -0.343408 -6.39732 -2.51496 -0.338411 -1.18123 0.298476 -0.673566 1.63841 0.638758 -0.681783 3.28338 0.650442 2.15093 17.1531 -1.38046 10.0347 -14.2436 1.52942 72.8764 -3.69745 -3.34706 121.382 31.9611 -73.2885 2.57984e-006 1.60201e-006 4.54815e-006 -135.064 82.7608 124.375 -1.31161e-007 -3.43437e-006 -3 8.02888 -4.95158 0.697773 -65.3816 1.52465 -0.0121867 -111.57 19.6751 26.0568 -3.02153e-014 1.59028e-014 -3.18055e-015 172.621 74.4459 -160.352 1.41329e-005 4.89774e-007 3 -8.0289 -4.9509 -0.697475 175.743 -0.393062 -0.305827 180 7.01568e-015 179.018 -178.409 12.9469 178.783 1.8555e-007 -5.90901e-006 0.128042 -16.6232 70.2797 21.3634 8.13652 25.233 -3.48722 -177.931 -2.77734 5.59949 4.54188e-006 -4.6773e-006 -1.35239 -4.36999 -11.2852 -0.160864 5.44318e-007 -6.69345e-007 -0.206654 22.6408 71.1305 -22.6666 -8.13649 25.2327 3.48773 
54.3213 94.0706 17.4684 -0.347726 -6.41845 -2.49796 -0.338716 -1.17217 0.297712 -0.674241 1.65653 0.637639 -0.68245 3.30151 0.649336 2.15521 17.0192 -1.39192 10.0381 -14.0895 1.50426 72.965 -3.68703 -3.34844 121.369 31.8694 -72.9773 2.57984e-006 1.60201e-006 4.54815e-006 -135.444 82.7308 124.741 -1.31161e-007 -3.43437e-006 -3 8.02888 -4.95158 0.697773 -65.3796 1.54996 -0.0259773 -111.57 19.5857 26.0137 -6.36111e-015 -3.18055e-015 3.18055e-015 172.59 74.3784 -160.299 1.41329e-005 4.89774e-007 3 -8.0289 -4.9509 -0.697475 175.751 -0.421505 -0.305443 180 7.01568e-015 179.017 -178.411 12.9448 178.783 1.8555e-007 -5.90901e-006 0.128577 -16.6295 70.2844 21.3669 8.13652 25.233 -3.48722 -177.923 -2.79198 5.59438 4.54188e-006 -4.6773e-006 -1.35264 -4.36914 -11.2952 -0.161021 5.44318e-007 -6.69345e-007 -0.206702 22.6372 71.1312 -22.6664 -8.13649 25.2327 3.48773 
54.3167 94.0729 17.4688 -0.352174 -6.43926 -2.4806 -0.338866 -1.1629 0.296952 -0.674608 1.67508 0.636443 -0.682807 3.32006 0.648149 2.15915 16.8871 -1.40329 10.0413 -13.9469 1.48008 73.0447 -3.6787 -3.35016 121.335 31.7704 -72.6874 2.57984e-006 1.60201e-006 4.54815e-006 -135.829 82.6696 125.085 -1.31161e-007 -3.43437e-006 -3 8.02888 -4.95158 0.697773 -65.3737 1.56833 -0.036542 -111.573 19.5032 25.9753 -6.36111e-015 -3.18055e-015 -0 172.563 74.3148 -160.252 1.41329e-005 4.89774e-007 3 -8.0289 -4.9509 -0.697475 175.758 -0.449902 -0.305158 180 7.01568e-015 179.017 -178.413 12.9421 178.784 1.8555e-007 -5.90901e-006 0.129049 -16.6361 70.2889 21.3703 8.13652 25.233 -3.48722 -177.916 -2.80611 5.5895 4.54188e-006 -4.6773e-006 -1.35285 -4.36796 -11.3052 -0.161083 5.44318e-007 -6.69345e-007 -0.20675 22.6335 71.1317 -22.6661 -8.13649 25.2327 3.48773 
54.3138 94.0731 17.4745 -0.356732 -6.45962 -2.46292 -0.338849 -1.15346 0.296201 -0.674642 1.69396 0.635172 -0.682829 3.33893 0.64688 2.1628 16.7582 -1.41454 10.0442 -13.8181 1.4571 73.1136 -3.67281 -3.35224 121.278 31.665 -72.4251 2.57984e-006 1.60201e-006 4.54815e-006 -136.205 82.5771 125.394 -1.31161e-007 -3.43437e-006 -3 8.02888 -4.95158 0.697773 -65.3636 1.5788 -0.0434143 -111.58 19.4304 25.9435 -4.77083e-015 3.18055e-015 -0 172.54 74.257 -160.212 1.41329e-005 4.89774e-007 3 -8.0289 -4.9509 -0.697475 175.766 -0.478088 -0.30497 180 7.01568e-015 179.016 -178.415 12.939 178.784 1.8555e-007 -5.90901e-006 0.129445 -16.6428 70.2932 21.3735 8.13652 25.233 -3.48722 -177.908 -2.81962 5.58491 4.54188e-006 -4.6773e-006 -1.35304 -4.36639 -11.3151 -0.161036 5.44318e-007 -6.69345e-007 -0.206798 22.6296 71.132 -22.6659 -8.13649 25.2327 3.48773 
54.3083 94.071 17.4722 -0.361379 -6.47937 -2.44496 -0.338652 -1.1439 0.295462 -0.674316 1.71307 0.633825 -0.682491 3.35805 0.64553 2.16623 16.6337 -1.42564 10.0467 -13.7055 1.43557 73.1699 -3.66968 -3.35471 121.197 31.5544 -72.1966 2.57984e-006 1.60201e-006 4.54815e-006 -136.564 82.4529 125.657 -1.31161e-007 -3.43437e-006 -3 8.02888 -4.95158 0.697773 -65.3487 1.58037 -0.0461273 -111.594 19.3699 25.9199 0 3.18055e-015 -0 172.523 74.2065 -160.18 1.41329e-005 4.89774e-007 3 -8.0289 -4.9509 -0.697475 175.775 -0.5059 -0.304878 180 7.01567e-015 179.016 -178.417 12.9354 178.785 1.8555e-007 -5.90901e-006 0.129753 -16.6497 70.2971 21.3767 8.13652 25.233 -3.48722 -177.901 -2.83238 5.58069 4.54188e-006 -4.6773e-006 -1.35319 -4.36439 -11.3249 -0.160866 5.44318e-007 -6.69345e-007 -0.206846 22.6256 71.1321 -22.6655 -8.13649 25.2327 3.48773 
54.3055 94.0714 17.4729 -0.366318 -6.5001 -2.42604 -0.338271 -1.1334 0.294808 -0.673629 1.73408 0.632529 -0.681793 3.37906 0.644225 2.16953 16.5036 -1.43731 10.0492 -13.6018 1.41402 73.2152 -3.66927 -3.35766 121.082 31.4316 -71.9919 2.57984e-006 1.60201e-006 4.54815e-006 -136.942 82.2767 125.895 -1.31161e-007 -3.43437e-006 -3 8.02888 -4.95158 0.697773 -65.3266 1.57166 -0.0442559 -111.614 19.3175 25.9059 -1.59028e-015 -6.36111e-015 -3.18055e-015 172.508 74.1595 -160.152 1.41329e-005 4.89774e-007 3 -8.0289 -4.9509 -0.697475 175.783 -0.535392 -0.304764 180 7.01567e-015 179.015 -178.419 12.9309 178.786 1.8555e-007 -5.90901e-006 0.129973 -16.657 70.3009 21.3798 8.13652 25.233 -3.48722 -177.893 -2.84588 5.57682 4.54188e-006 -4.6773e-006 -1.35331 -4.36172 -11.3348 -0.160537 5.44318e-007 -6.69345e-007 -0.206894 22.6214 71.1319 -22.6652 -8.13649 25.2327 3.48773 
